<svg width="304" height="239" viewBox="0 0 304 239" fill="none" xmlns="http://www.w3.org/2000/svg">
<g clip-path="url(#clip0)">
<path d="M164.918 237.975C86.858 238.145 23.5735 236.19 23.5679 233.609C23.5623 231.028 86.8377 228.798 164.897 228.628C242.957 228.459 306.242 230.413 306.247 232.994C306.253 235.576 242.977 237.806 164.918 237.975Z" fill="#6BE878"/>
<path d="M166.69 76.9453C157.079 76.9662 149.271 69.1841 149.25 59.5635C149.229 49.9428 157.003 42.1269 166.614 42.106C176.225 42.0851 184.033 49.8672 184.054 59.4878C184.075 69.1084 176.301 76.9244 166.69 76.9453Z" fill="#6C63FF"/>
<path d="M171.342 99.793L179.204 93.7435L207.506 144.794C208.392 144.954 209.211 145.37 209.862 145.992C210.513 146.614 210.967 147.414 211.166 148.293C211.366 149.171 211.303 150.089 210.986 150.931C210.668 151.774 210.109 152.505 209.38 153.032C208.65 153.559 207.782 153.86 206.882 153.896C205.983 153.933 205.093 153.704 204.323 153.238C203.553 152.771 202.938 152.088 202.553 151.274C202.168 150.46 202.031 149.55 202.159 148.659L171.342 99.793Z" fill="#FFB8B8"/>
<path d="M99.5284 128.959C99.8482 128.026 100.46 127.221 101.273 126.663C102.086 126.105 103.056 125.824 104.041 125.861L149.386 90.0965L156.215 97.2934L108.437 130.783C108.39 131.434 108.204 132.067 107.893 132.64C107.582 133.214 107.152 133.714 106.633 134.108C106.113 134.502 105.515 134.781 104.88 134.925C104.244 135.07 103.585 135.077 102.946 134.946C102.308 134.815 101.704 134.55 101.176 134.167C100.648 133.784 100.208 133.293 99.8841 132.727C99.5606 132.16 99.3616 131.531 99.3002 130.882C99.2389 130.232 99.3167 129.577 99.5284 128.959L99.5284 128.959Z" fill="#FFB8B8"/>
<path d="M152.461 228.322L147.109 228.334L144.518 207.678L152.416 207.661L152.461 228.322Z" fill="#FFB8B8"/>
<path d="M136.8 233.33L153.618 233.293L153.604 226.789L143.284 226.812C141.56 226.815 139.909 227.504 138.693 228.727C137.477 229.949 136.796 231.605 136.8 233.33L136.8 233.33Z" fill="#2F2E41"/>
<path d="M194.852 223.448L189.94 225.573L179.411 207.62L186.661 204.483L194.852 223.448Z" fill="#FFB8B8"/>
<path d="M182.439 234.238L197.876 227.558L195.297 221.587L185.825 225.687C184.243 226.371 182.997 227.657 182.362 229.261C181.728 230.864 181.755 232.655 182.439 234.238Z" fill="#2F2E41"/>
<path d="M177.967 129.201L203.597 209.418L170.195 213.074L166.884 166.168L162.637 213.09L135.584 209.964C135.584 209.964 140.308 135.653 149.19 130.856C158.073 126.059 177.967 129.201 177.967 129.201Z" fill="#2F2E41"/>
<path d="M164.06 81.1502C157.909 81.1636 152.912 76.1832 152.899 70.0263C152.886 63.8694 157.861 58.8674 164.012 58.8541C170.162 58.8407 175.159 63.821 175.173 69.9779C175.186 76.1348 170.211 81.1368 164.06 81.1502Z" fill="#FFB8B8"/>
<path d="M164.529 132.829C172.262 132.812 179.704 132.452 180.086 131.786C180.118 131.73 180.13 131.665 180.12 131.601C180.11 131.537 180.079 131.478 180.031 131.435C179.497 130.652 180.718 117.903 183.304 97.3379C183.597 94.9296 183.059 92.4934 181.78 90.4324C180.502 88.3715 178.559 86.8093 176.272 86.0044L176.223 85.9934L152.91 83.74L152.649 83.814C150.345 84.4608 148.329 85.8729 146.933 87.8183C145.536 89.7637 144.843 92.1266 144.965 94.5189C145.595 107.633 146.652 129.844 146.655 131.26C146.656 131.645 147.192 131.837 147.659 131.961C149.929 132.565 157.355 132.844 164.529 132.829Z" fill="#2F2E41"/>
<path d="M272.423 211.139C275.634 221.79 270.711 232.698 270.711 232.698C270.711 232.698 260.582 226.337 257.371 215.685C254.16 205.034 259.084 194.126 259.084 194.126C259.084 194.126 269.213 200.487 272.423 211.139Z" fill="#6BE878"/>
<path d="M267.584 211.438C264.925 222.24 270.402 232.88 270.402 232.88C270.402 232.88 280.191 226.006 282.85 215.203C285.509 204.401 280.032 193.76 280.032 193.76C280.032 193.76 270.243 200.635 267.584 211.438Z" fill="#6BE878"/>
<path d="M179.681 62.5843C173.766 65.825 167.103 67.4518 160.362 67.3015C157.779 67.24 154.933 66.776 153.294 64.7782C151.444 62.524 151.898 58.9945 153.673 56.6804C155.447 54.3664 158.229 53.058 161.005 52.1687C163.631 51.3273 166.446 50.783 169.143 51.3613C170.566 51.6665 171.906 52.2749 173.073 53.145C174.24 54.0152 175.207 55.1267 175.906 56.4041C176.606 57.6814 177.023 59.0946 177.128 60.5475C177.233 62.0004 177.025 63.459 176.517 64.824" fill="#6C63FF"/>
<path d="M178.955 56.9496C173.564 56.9614 169.183 52.5958 169.172 47.1989C169.16 41.8019 173.521 37.4174 178.913 37.4056C184.304 37.3939 188.684 41.7595 188.696 47.1564C188.708 52.5533 184.347 56.9379 178.955 56.9496Z" fill="#6C63FF"/>
<path d="M2.53189 48.6449L40.8039 26.2045L35.8698 17.7725C35.7289 17.5318 35.6368 17.2657 35.5987 16.9893C35.5605 16.713 35.5772 16.4318 35.6476 16.1619C35.718 15.892 35.8409 15.6386 36.0092 15.4162C36.1774 15.1938 36.3878 15.0068 36.6283 14.8658C36.8688 14.7248 37.1346 14.6326 37.4107 14.5944C37.6868 14.5563 37.9677 14.5729 38.2373 14.6434C38.5069 14.7139 38.7601 14.8369 38.9823 15.0053C39.2044 15.1738 39.3913 15.3844 39.5321 15.6251L44.4662 24.057L82.7383 1.61657C83.5153 1.16094 84.4414 1.03298 85.3127 1.26082C86.184 1.48867 86.9292 2.05365 87.3844 2.83149L117.418 54.1565C117.873 54.9344 118.001 55.8614 117.774 56.7336C117.546 57.6058 116.982 58.3518 116.204 58.8074L77.9325 81.2479L111.613 138.805C111.754 139.046 111.846 139.312 111.885 139.589C111.923 139.865 111.906 140.146 111.836 140.416C111.765 140.686 111.642 140.94 111.474 141.162C111.306 141.384 111.095 141.572 110.855 141.713C110.614 141.854 110.348 141.946 110.072 141.984C109.796 142.022 109.515 142.005 109.246 141.935C108.976 141.864 108.723 141.741 108.501 141.573C108.278 141.404 108.092 141.193 107.951 140.953L74.2701 83.3951L35.9981 105.836C35.6133 106.061 35.1879 106.209 34.7462 106.27C34.3045 106.331 33.855 106.304 33.4236 106.191C32.9922 106.079 32.5872 105.882 32.2317 105.612C31.8762 105.343 31.5773 105.006 31.3519 104.621L1.31814 53.2956C1.09277 52.9105 0.945377 52.4847 0.884395 52.0425C0.82342 51.6003 0.850053 51.1505 0.962761 50.7186C1.07546 50.2868 1.27203 49.8813 1.54126 49.5255C1.81049 49.1697 2.14712 48.8705 2.53189 48.6449Z" fill="#3F3D56"/>
<path opacity="0.1" d="M55.7483 79.4835C54.5635 77.4587 59.834 72.1639 67.5202 67.6572C75.2064 63.1505 82.3977 61.1384 83.5825 63.1631C84.7673 65.1879 79.4969 70.4826 71.8107 74.9894C64.1245 79.4961 56.9331 81.5082 55.7483 79.4835Z" fill="black"/>
<path d="M59.4126 74.1199C48.1607 74.1443 39.0194 65.0336 38.9949 53.7704C38.9704 42.5073 48.072 33.3569 59.3239 33.3324C70.5757 33.3079 79.717 42.4187 79.7415 53.6818C79.766 64.945 70.6644 74.0954 59.4126 74.1199Z" fill="#6C63FF"/>
<path d="M50.5263 63.8343C51.711 65.8591 60.0393 67.1195 66.1074 63.5616C72.1754 60.0036 73.6854 52.9746 72.5006 50.9499C71.3158 48.9252 67.8849 52.6715 61.8168 56.2294C55.7488 59.7874 49.3414 61.8096 50.5263 63.8343Z" fill="#F2F2F2"/>
<path d="M63.7877 47.0181C61.4436 47.0232 59.5392 45.1251 59.5341 42.7786C59.529 40.4321 61.4251 38.5258 63.7692 38.5207C66.1134 38.5156 68.0178 40.4137 68.0229 42.7602C68.028 45.1067 66.1319 47.013 63.7877 47.0181Z" fill="#F2F2F2"/>
<path d="M48.4056 56.0373C46.0615 56.0424 44.1571 54.1443 44.152 51.7978C44.1469 49.4513 46.043 47.545 48.3872 47.5399C50.7313 47.5348 52.6357 49.4328 52.6408 51.7793C52.6459 54.1258 50.7498 56.0322 48.4056 56.0373Z" fill="#F2F2F2"/>
</g>
<defs>
<clipPath id="clip0">
<rect width="305" height="237" fill="white" transform="matrix(-0.999998 0.00217489 0.00217489 0.999998 305.742 0.668579)"/>
</clipPath>
</defs>
</svg>
